<?xml version="1.0" standalone="no"?><!DOCTYPE svg PUBLIC "-//W3C//DTD SVG 1.1//EN" "http://www.w3.org/Graphics/SVG/1.1/DTD/svg11.dtd"><svg t="1543558221962" class="icon" style="" viewBox="0 0 1024 1024" version="1.1" xmlns="http://www.w3.org/2000/svg" p-id="21144" id="mx_n_1543558221964" xmlns:xlink="http://www.w3.org/1999/xlink" width="200" height="200"><defs><style type="text/css"></style></defs><path d="M81.92 1003.52c-33.87392 0-61.44-27.56608-61.44-61.44V81.92c0-33.87392 27.56608-61.44 61.44-61.44h860.16c33.87392 0 61.44 27.56608 61.44 61.44v860.16c0 33.87392-27.56608 61.44-61.44 61.44H81.92z" fill="#1296db" p-id="21145" data-spm-anchor-id="a313x.7781069.0.i29" class="selected"></path><path d="M942.08 40.96c22.58944 0 40.96 18.37056 40.96 40.96v860.16c0 22.58944-18.37056 40.96-40.96 40.96H81.92c-22.58944 0-40.96-18.37056-40.96-40.96V81.92c0-22.58944 18.37056-40.96 40.96-40.96h860.16m0-40.96H81.92a81.92 81.92 0 0 0-81.92 81.92v860.16a81.92 81.92 0 0 0 81.92 81.92h860.16a81.92 81.92 0 0 0 81.92-81.92V81.92a81.92 81.92 0 0 0-81.92-81.92z" fill="#1296db" p-id="21146" data-spm-anchor-id="a313x.7781069.0.i30" class="selected"></path><path d="M273.05984 453.12l51.2-155.52512h375.45984l51.2 155.52512m-51.17952 172.78976c-28.32384 0-51.2-23.16288-51.2-51.83488 0-28.69248 22.87616-51.83488 51.2-51.83488s51.2 23.16288 51.2 51.83488c0 28.69248-22.87616 51.83488-51.2 51.83488m-375.48032 0c-28.32384 0-51.2-23.16288-51.2-51.83488 0-28.69248 22.87616-51.83488 51.2-51.83488s51.2 23.16288 51.2 51.83488c0 28.69248-22.85568 51.83488-51.2 51.83488m423.936-345.6a51.2 51.2 0 0 0-48.47616-34.57024H324.25984c-22.528 0-41.63584 14.52032-48.47616 34.57024L204.8 487.66976v276.48c0 19.02592 15.36 34.57024 34.14016 34.57024h34.14016C291.84 798.72 307.2 783.17568 307.2 764.17024v-34.57024h409.6v34.57024c0 19.00544 15.36 34.54976 34.14016 34.54976h34.14016C803.84 798.72 819.2 783.17568 819.2 764.17024v-276.48l-71.00416-207.38048z" fill="#FFFFFF" p-id="21147"></path></svg>