<?xml version="1.0" standalone="no"?><!DOCTYPE svg PUBLIC "-//W3C//DTD SVG 1.1//EN" "http://www.w3.org/Graphics/SVG/1.1/DTD/svg11.dtd"><svg t="1543558602239" class="icon" style="" viewBox="0 0 1024 1024" version="1.1" xmlns="http://www.w3.org/2000/svg" p-id="23575" xmlns:xlink="http://www.w3.org/1999/xlink" width="200" height="200"><defs><style type="text/css"></style></defs><path d="M512 512m-512 0a512 512 0 1 0 1024 0 512 512 0 1 0-1024 0Z" fill="#F9D096" p-id="23576"></path><path d="M550.016 148.304l-31 28.736 6.592 388.92-258.712 174.48-69.664 8.296 276.352 273.672A512.88 512.88 0 0 0 512 1024c249.744 0 457.6-178.856 502.784-415.44L550.016 148.304z" fill="#E1B27A" p-id="23577"></path><path d="M444.456 750.392h135.096v92.216H444.456z" fill="#CF7C3F" p-id="23578"></path><path d="M648.512 602.768c54.528-2.832 62.488-9.36 115.72-21.768 0 0-97.688-70.968-173.16-157.824 47.592-2.024 73.08-8.048 119.888-20.72 0 0-146.968-99.664-190-203.28 0 0-118.328 175.976-207.936 203.28 0 0 50.576 14.744 140.328 19.848-53.968 58.768-122.84 140.168-193.592 158.696 0 0 27.112 14.312 131.112 20.592-67.528 59.112-114.768 130.968-195.392 148.576 0 0 347.872 55.376 633.032 0 0 0-85.248-64.792-180-147.4z" fill="#35683D" p-id="23579"></path><path d="M519.016 177.032m-43.656 0a43.656 43.656 0 1 0 87.312 0 43.656 43.656 0 1 0-87.312 0Z" fill="#E1574C" p-id="23580"></path><path d="M559.184 329.624m-25.704 0a25.704 25.704 0 1 0 51.408 0 25.704 25.704 0 1 0-51.408 0Z" fill="#EECE7B" p-id="23581"></path><path d="M444.984 517.352m-30.376 0a30.376 30.376 0 1 0 60.752 0 30.376 30.376 0 1 0-60.752 0Z" fill="#41ADD1" p-id="23582"></path><path d="M385.696 700.688m-28.912 0a28.912 28.912 0 1 0 57.824 0 28.912 28.912 0 1 0-57.824 0Z" fill="#E1574C" p-id="23583"></path><path d="M580.072 737.64m-36.944 0a36.944 36.944 0 1 0 73.888 0 36.944 36.944 0 1 0-73.888 0Z" fill="#EECE7B" p-id="23584"></path><path d="M666.824 652.504m-27.304 0a27.304 27.304 0 1 0 54.608 0 27.304 27.304 0 1 0-54.608 0Z" fill="#E1574C" p-id="23585"></path></svg>