<?xml version="1.0" standalone="no"?><!DOCTYPE svg PUBLIC "-//W3C//DTD SVG 1.1//EN" "http://www.w3.org/Graphics/SVG/1.1/DTD/svg11.dtd"><svg t="1542837068095" class="icon" style="" viewBox="0 0 1024 1024" version="1.1" xmlns="http://www.w3.org/2000/svg" p-id="1972" xmlns:xlink="http://www.w3.org/1999/xlink" width="200" height="200"><defs><style type="text/css"></style></defs><path d="M500.914065 101.849403m-101.850403 0a101.850403 101.850403 0 1 0 203.700806 0 101.850403 101.850403 0 1 0-203.700806 0Z" p-id="1973" fill="#185b64"></path><path d="M254.163511 187.508901m-96.031438 0a96.031437 96.031437 0 1 0 192.062875 0 96.031437 96.031437 0 1 0-192.062875 0Z" p-id="1974" fill="#185b64"></path><path d="M120.713293 381.395765m-90.210472 0a90.210471 90.210471 0 1 0 180.420943 0 90.210471 90.210471 0 1 0-180.420943 0Z" p-id="1975" fill="#185b64"></path><path d="M118.049308 609.722427m-84.390505 0a84.390506 84.390506 0 1 0 168.781011 0 84.390506 84.390506 0 1 0-168.781011 0Z" p-id="1976" fill="#185b64"></path><path d="M224.002687 786.127394m-78.570539 0a78.57054 78.57054 0 1 0 157.141079 0 78.57054 78.57054 0 1 0-157.141079 0Z" p-id="1977" fill="#185b64"></path><path d="M418.803546 889.708787m-72.750574 0a72.750574 72.750574 0 1 0 145.501148 0 72.750574 72.750574 0 1 0-145.501148 0Z" p-id="1978" fill="#185b64"></path><path d="M626.851327 877.857856m-66.931608 0a66.931608 66.931608 0 1 0 133.863216 0 66.931608 66.931608 0 1 0-133.863216 0Z" p-id="1979" fill="#185b64"></path><path d="M800.334311 762.483532m-61.110642 0a61.110642 61.110642 0 1 0 122.221283 0 61.110642 61.110642 0 1 0-122.221283 0Z" p-id="1980" fill="#185b64"></path><path d="M889.516788 587.14856m-55.290676 0a55.290676 55.290676 0 1 0 110.581352 0 55.290676 55.290676 0 1 0-110.581352 0Z" p-id="1981" fill="#185b64"></path><path d="M888.602793 408.896604m-49.47071 0a49.47071 49.47071 0 1 0 98.94142 0 49.47071 49.47071 0 1 0-98.94142 0Z" p-id="1982" fill="#185b64"></path><path d="M818.663203 260.047476m-43.650744 0a43.650744 43.650744 0 1 0 87.301488 0 43.650744 43.650744 0 1 0-87.301488 0Z" p-id="1983" fill="#185b64"></path><path d="M708.18485 159.990063m-37.829778 0a37.829778 37.829778 0 1 0 75.659557 0 37.829778 37.829778 0 1 0-75.659557 0Z" p-id="1984" fill="#185b64"></path></svg>