<?xml version="1.0" standalone="no"?><!DOCTYPE svg PUBLIC "-//W3C//DTD SVG 1.1//EN" "http://www.w3.org/Graphics/SVG/1.1/DTD/svg11.dtd"><svg t="1542833029757" class="icon" style="" viewBox="0 0 1024 1024" version="1.1" xmlns="http://www.w3.org/2000/svg" p-id="2111" xmlns:xlink="http://www.w3.org/1999/xlink" width="200" height="200"><defs><style type="text/css"></style></defs><path d="M787.510356 387.850445c0-152.160515-123.350352-275.511891-275.510868-275.511891S236.487597 235.68993 236.487597 387.850445c0 44.665269 10.640338 86.841857 29.507034 124.151601l-0.010233-0.001023 0.059352 0.100284c5.548366 10.962679 11.812023 21.500687 18.723434 31.56081L511.999488 926.678464l227.234351-383.021463c6.909363-10.057053 13.170974-20.593014 18.71934-31.552623l0.062422-0.104377-0.011256 0.002047C776.870018 474.692303 787.510356 432.515714 787.510356 387.850445zM511.999488 506.802628c-74.596975 0-135.070278-60.47228-135.070278-135.070278 0-74.595952 60.47228-135.069255 135.070278-135.069255 74.595952 0 135.069255 60.473303 135.069255 135.069255C647.068743 446.330348 586.59544 506.802628 511.999488 506.802628z" p-id="2112" fill="#185b64"></path></svg>