<?xml version="1.0" standalone="no"?><!DOCTYPE svg PUBLIC "-//W3C//DTD SVG 1.1//EN" "http://www.w3.org/Graphics/SVG/1.1/DTD/svg11.dtd"><svg t="1543559348477" class="icon" style="" viewBox="0 0 1024 1024" version="1.1" xmlns="http://www.w3.org/2000/svg" p-id="36295" xmlns:xlink="http://www.w3.org/1999/xlink" width="200" height="200"><defs><style type="text/css"></style></defs><path d="M512 1024C230.4 1024 0 793.6 0 512S230.4 0 512 0s512 230.4 512 512-230.4 512-512 512z" fill="#F9D196" p-id="36296" data-spm-anchor-id="a313x.7781069.0.i40" class="selected"></path><path d="M274.352 403.04l487.624-1.432 43.944 159.256-591.104 1.432z" fill="#8B7A5C" p-id="36297"></path><path d="M484.456 786.408H240.784V563.84h242.184" fill="#F4EDDD" p-id="36298"></path><path d="M468.32 792.52H240.784l-6.104-6.104V563.84l6.104-6.104h226.144c3.368 0 6.096 2.736 6.096 6.104s-2.728 6.104-6.096 6.104H246.88v210.368h221.44a6.102 6.102 0 1 1 0 12.208" fill="#474341" p-id="36299"></path><path d="M484.4 542.704h286.368v243.704H484.4z" fill="#F4EDDD" p-id="36300"></path><path d="M770.744 792.512H484.368l-6.104-6.104V542.704l6.104-6.104h286.376l6.096 6.104v243.704l-6.096 6.104z m-280.28-12.2H764.64V548.808H490.464v231.504z" fill="#474341" p-id="36301"></path><path d="M467.84 534.896l159.648-103.704 154.136 103.704-10.88 7.808" fill="#F3D8C2" p-id="36302"></path><path d="M770.744 548.808a6.104 6.104 0 0 1-3.56-11.056l3.752-2.688-143.512-96.56-156.256 101.52a6.104 6.104 0 0 1-6.648-10.24l159.64-103.712 6.728 0.064 154.144 103.704 0.152 10.016-10.888 7.808c-1.08 0.776-2.32 1.144-3.552 1.144" fill="#474341" p-id="36303"></path><path d="M805.016 569.944h-13.36a6.102 6.102 0 1 1 0-12.208h5.488l-38.616-149.392H397.424c-3.368 0-6.096-2.736-6.096-6.104s2.72-6.104 6.096-6.104h365.824l5.904 4.568 41.776 161.6-5.912 7.64zM240.376 569.944h-26.688l-5.784-8.048 54.136-161.6 5.784-4.16h32.312c3.368 0 6.096 2.736 6.096 6.104s-2.72 6.104-6.096 6.104h-27.92l-50.056 149.4h18.208a6.108 6.108 0 0 1 6.104 6.104 6.094 6.094 0 0 1-6.096 6.096" fill="#474341" p-id="36304"></path><path d="M293.864 494.12l29.8-218.824H377.8l24.648 218.824z" fill="#D66F5A" p-id="36305"></path><path d="M402.44 500.224h-108.576l-6.048-6.928 29.8-218.824 6.048-5.28h54.144l6.056 5.424 24.64 218.824-6.064 6.784z m-101.592-12.208h94.768L372.352 281.4h-43.36l-28.144 206.616z" fill="#474341" p-id="36306"></path><path d="M365.696 281.4a6.088 6.088 0 0 1-5.64-3.776 6.1 6.1 0 0 1-5.64 3.776h-11.272l-6.104-6.104v-30.072l6.104-6.104h22.552l6.096 6.104v30.072a6.1 6.1 0 0 1-6.096 6.104m-16.456-12.208h5.168c2.184 0 4.096 1.152 5.184 2.872v-20.736h-10.352v17.864z" fill="#474341" p-id="36307"></path><path d="M575.872 607.712h104.64v123.608h-104.64z" fill="#DFF1FA" p-id="36308"></path><path d="M680.52 737.416h-104.648a6.102 6.102 0 0 1-6.104-6.104v-123.6a6.102 6.102 0 0 1 6.104-6.104h104.648a6.108 6.108 0 0 1 6.104 6.104v123.608a6.106 6.106 0 0 1-6.104 6.096m-98.552-12.2h92.448v-111.408h-92.448v111.408z" fill="#474341" p-id="36309"></path><path d="M397.432 786.408V712.08c0-24.344-17.664-44.264-39.256-44.264s-39.256 19.92-39.256 44.264v74.336h78.512v-0.008z" fill="#8B7A5C" p-id="36310"></path><path d="M397.432 790.68H318.92l-4.264-4.264V712.08c0-26.76 19.52-48.536 43.52-48.536s43.528 21.776 43.528 48.536v74.336l-4.272 4.264z m-74.24-8.536h69.968V712.08c0-22.056-15.696-39.992-34.984-39.992s-34.984 17.936-34.984 39.992v70.064zM766.592 568.112H522.648a4.266 4.266 0 1 1 0-8.536h243.944a4.266 4.266 0 1 1 0 8.536M480.872 588.592h-218.16a4.264 4.264 0 0 1-4.264-4.272c0-2.36 1.912-4.264 4.264-4.264h218.16c2.36 0 4.272 1.904 4.272 4.264s-1.912 4.272-4.272 4.272M627.952 731.384a4.266 4.266 0 0 1-4.272-4.272v-119.4c0-2.368 1.912-4.272 4.272-4.272s4.272 1.904 4.272 4.272v119.4a4.266 4.266 0 0 1-4.272 4.272M663.328 645.384a4.226 4.226 0 0 1-3.336-1.608l-15.536-19.416a4.27 4.27 0 0 1 0.664-6 4.26 4.26 0 0 1 6 0.672l15.536 19.416a4.27 4.27 0 0 1-3.328 6.936M663.328 668.832a4.226 4.226 0 0 1-3.336-1.608l-15.536-19.416a4.27 4.27 0 0 1 0.664-6 4.268 4.268 0 0 1 6 0.672l15.536 19.416a4.27 4.27 0 0 1-3.328 6.936M628.2 531.8a4.268 4.268 0 0 1-4.272-4.256l-0.248-76a4.272 4.272 0 0 1 4.256-4.288h0.008c2.36 0 4.264 1.896 4.28 4.256l0.248 76a4.276 4.276 0 0 1-4.256 4.288h-0.016zM659.688 531.8a4.266 4.266 0 0 1-4.272-4.272V473.24c0-2.36 1.912-4.264 4.272-4.264s4.272 1.904 4.272 4.264v54.288c0 2.36-1.912 4.272-4.272 4.272M687.248 531.8a4.266 4.266 0 0 1-4.272-4.272v-37.992c0-2.368 1.912-4.272 4.272-4.272s4.272 1.904 4.272 4.272v37.992c0 2.36-1.912 4.272-4.272 4.272M716.48 531.8a4.266 4.266 0 0 1-4.272-4.272v-19c0-2.36 1.912-4.264 4.272-4.264s4.272 1.904 4.272 4.264v19c0 2.36-1.912 4.272-4.272 4.272M598.72 531.8a4.266 4.266 0 0 1-4.272-4.272V473.24c0-2.36 1.912-4.264 4.272-4.264s4.272 1.904 4.272 4.264v54.288c0 2.36-1.912 4.272-4.272 4.272M571.152 531.8a4.266 4.266 0 0 1-4.272-4.272v-37.992c0-2.368 1.912-4.272 4.272-4.272s4.272 1.904 4.272 4.272v37.992c0 2.36-1.912 4.272-4.272 4.272M541.92 531.8a4.266 4.266 0 0 1-4.272-4.272v-19c0-2.36 1.912-4.264 4.272-4.264s4.272 1.904 4.272 4.264v19c0 2.36-1.912 4.272-4.272 4.272M323.304 320.912h16.912c5.496 0 5.504-8.536 0-8.536h-16.912c-5.488-0.008-5.504 8.536 0 8.536M357.136 347.848h27.56c5.496 0 5.504-8.536 0-8.536h-27.56c-5.496-0.008-5.504 8.536 0 8.536M314.536 370.392h30.696c5.496 0 5.504-8.536 0-8.536h-30.696c-5.496 0-5.504 8.536 0 8.536M336.464 397.328h6.888c5.496 0 5.504-8.536 0-8.536h-6.888c-5.496 0-5.504 8.536 0 8.536M363.4 399.832h20.048c5.496 0 5.504-8.536 0-8.536H363.4c-5.496 0-5.504 8.536 0 8.536M358.384 319.656h6.264c5.496 0 5.504-8.536 0-8.536h-6.264c-5.496 0-5.504 8.536 0 8.536M338.968 299.608h8.768c5.496 0 5.504-8.536 0-8.536h-8.768c-5.496 0-5.504 8.536 0 8.536M318.296 428.024h7.52c5.496 0 5.504-8.536 0-8.536h-7.52c-5.496 0-5.504 8.536 0 8.536M341.472 441.808h33.2c5.496 0 5.504-8.536 0-8.536h-33.2c-5.496-0.008-5.504 8.536 0 8.536M359.008 423.016h11.28c5.496 0 5.504-8.536 0-8.536h-11.28c-5.488-0.008-5.496 8.536 0 8.536M299.504 464.984h28.816c5.496 0 5.504-8.536 0-8.536h-28.816c-5.496-0.008-5.504 8.536 0 8.536M370.288 477.512h26.936c5.496 0 5.504-8.536 0-8.536h-26.936c-5.496-0.008-5.504 8.536 0 8.536M333.328 483.776h6.888c5.496 0 5.504-8.536 0-8.536h-6.888c-5.496-0.008-5.504 8.536 0 8.536M332.704 349.096h5.64c5.496 0 5.504-8.536 0-8.536h-5.64c-5.496 0-5.504 8.536 0 8.536M365.272 373.528h5.016c5.496 0 5.504-8.536 0-8.536h-5.016c-5.488-0.008-5.496 8.536 0 8.536" fill="#474341" p-id="36311"></path><path d="M373.488 741.896l1.256 1.256c5.56 5.56 14.184-3.072 8.624-8.624-0.416-0.416-0.84-0.832-1.256-1.256-5.552-5.56-14.184 3.064-8.624 8.624" fill="#474341" p-id="36312"></path></svg>