<?xml version="1.0" standalone="no"?><!DOCTYPE svg PUBLIC "-//W3C//DTD SVG 1.1//EN" "http://www.w3.org/Graphics/SVG/1.1/DTD/svg11.dtd"><svg t="1543557720025" class="icon" style="" viewBox="0 0 1024 1024" version="1.1" xmlns="http://www.w3.org/2000/svg" p-id="7403" xmlns:xlink="http://www.w3.org/1999/xlink" width="200" height="200"><defs><style type="text/css"></style></defs><path d="M512 0c-176.72192 0-320 143.27808-320 320 0 320 320 704 320 704s320-384 320-704c0-176.72192-143.27808-320-320-320zM512 515.9936c-108.25728 0-195.9936-87.7568-195.9936-195.9936s87.7568-195.9936 195.9936-195.9936 195.9936 87.7568 195.9936 195.9936-87.7568 195.9936-195.9936 195.9936zM387.9936 320c0-68.48512 55.52128-124.0064 124.0064-124.0064s124.0064 55.52128 124.0064 124.0064c0 68.48512-55.52128 124.0064-124.0064 124.0064s-124.0064-55.52128-124.0064-124.0064z" p-id="7404" data-spm-anchor-id="a313x.7781069.0.i4" class="" fill="#d81e06"></path></svg>